# xmcd
#
# Track frame offsets:
#	150
#	32897
#	136337
#	177033
#	206636
#	248452
#
# Disc length: 4023 seconds
#
# Revision: 0
# Processed by: cddbd v1.5.2PL0 Copyright (c) Steve Scherf et al.
# Submitted via: audiograbber 1.83.01
#
DISCID=490fb506
DTITLE=Grateful Dead - 94-06-19 Autzen Stadium, Eugene OR
DYEAR=1900
DGENRE=
TTITLE0=Scarlet Begonias
TTITLE1=Fire On the Mountain
TTITLE2=Samson and Delilah
TTITLE3=Long Way To Go Home
TTITLE4=Playing In The Band
TTITLE5=Uncle John's Band
EXTD=
EXTT0=
EXTT1=
EXTT2=
EXTT3=
EXTT4=
EXTT5=
PLAYORDER=
